G75*
%MOIN*%
%OFA0B0*%
%FSLAX25Y25*%
%IPPOS*%
%LPD*%
%AMOC8*
5,1,8,0,0,1.08239X$1,22.5*
%
%ADD10OC8,0.07100*%
%ADD11C,0.06800*%
%ADD12C,0.05950*%
%ADD13C,0.05950*%
%ADD14C,0.06343*%
%ADD15C,0.08600*%
D10*
X0090350Y0128530D03*
X0090350Y0148530D03*
X0090154Y0160892D03*
X0090154Y0180892D03*
D11*
X0021335Y0029955D02*
X0021335Y0023955D01*
X0031335Y0023955D02*
X0031335Y0029955D01*
X0041335Y0029955D02*
X0041335Y0023955D01*
X0051335Y0023955D02*
X0051335Y0029955D01*
X0061335Y0029955D02*
X0061335Y0023955D01*
X0111335Y0041081D02*
X0111335Y0047081D01*
X0121335Y0047081D02*
X0121335Y0041081D01*
X0131335Y0041081D02*
X0131335Y0047081D01*
X0141335Y0047081D02*
X0141335Y0041081D01*
X0163335Y0041955D02*
X0169335Y0041955D01*
X0169335Y0031955D02*
X0163335Y0031955D01*
X0114335Y0141955D02*
X0108335Y0141955D01*
X0108335Y0151955D02*
X0114335Y0151955D01*
X0114335Y0161955D02*
X0108335Y0161955D01*
D12*
X0073909Y0156955D02*
X0068760Y0156955D01*
X0068760Y0166955D02*
X0073909Y0166955D01*
X0073909Y0146955D02*
X0068760Y0146955D01*
X0068760Y0136955D02*
X0073909Y0136955D01*
X0073909Y0126955D02*
X0068760Y0126955D01*
X0068760Y0116955D02*
X0073909Y0116955D01*
X0073909Y0106955D02*
X0068760Y0106955D01*
X0068760Y0096955D02*
X0073909Y0096955D01*
X0073909Y0086955D02*
X0068760Y0086955D01*
X0068760Y0076955D02*
X0073909Y0076955D01*
X0073909Y0066955D02*
X0068760Y0066955D01*
X0068760Y0056955D02*
X0073909Y0056955D01*
X0066335Y0049530D02*
X0066335Y0044381D01*
X0056335Y0044381D02*
X0056335Y0049530D01*
X0046335Y0049530D02*
X0046335Y0044381D01*
X0036335Y0044381D02*
X0036335Y0049530D01*
X0026335Y0049530D02*
X0026335Y0044381D01*
X0016335Y0044381D02*
X0016335Y0049530D01*
X0013909Y0056955D02*
X0008760Y0056955D01*
X0008760Y0066955D02*
X0013909Y0066955D01*
X0013909Y0076955D02*
X0008760Y0076955D01*
X0008760Y0086955D02*
X0013909Y0086955D01*
X0013909Y0096955D02*
X0008760Y0096955D01*
X0008760Y0106955D02*
X0013909Y0106955D01*
X0013909Y0116955D02*
X0008760Y0116955D01*
X0008760Y0126955D02*
X0013909Y0126955D01*
X0013909Y0136955D02*
X0008760Y0136955D01*
X0008760Y0146955D02*
X0013909Y0146955D01*
X0013909Y0156955D02*
X0008760Y0156955D01*
X0008760Y0166955D02*
X0013909Y0166955D01*
X0026335Y0164381D02*
X0026335Y0169530D01*
X0036335Y0169530D02*
X0036335Y0164381D01*
X0046335Y0164381D02*
X0046335Y0169530D01*
D13*
X0026335Y0101955D03*
X0026335Y0091955D03*
D14*
X0091335Y0066955D03*
X0101335Y0066955D03*
X0111335Y0066955D03*
X0121335Y0066955D03*
X0131335Y0066955D03*
X0141335Y0066955D03*
X0151335Y0066955D03*
X0161335Y0066955D03*
X0161335Y0116955D03*
X0151335Y0116955D03*
X0141335Y0116955D03*
X0131335Y0116955D03*
X0121335Y0116955D03*
X0111335Y0116955D03*
X0101335Y0116955D03*
X0091335Y0116955D03*
D15*
X0147435Y0142055D02*
X0155235Y0142055D01*
X0155235Y0161855D02*
X0147435Y0161855D01*
M02*
