%
M48
M72
T01C0.03150
T02C0.03200
T03C0.03543
T04C0.04000
T05C0.05200
%
T01
X16335Y46955
X26335Y46955
X36335Y46955
X46335Y46955
X56335Y46955
X66335Y46955
X71335Y56955
X71335Y66955
X71335Y76955
X71335Y86955
X71335Y96955
X71335Y106955
X71335Y116955
X71335Y126955
X71335Y136955
X71335Y146955
X71335Y156955
X71335Y166955
X46335Y166955
X36335Y166955
X26335Y166955
X11335Y166955
X11335Y156955
X11335Y146955
X11335Y136955
X11335Y126955
X11335Y116955
X11335Y106955
X11335Y96955
X11335Y86955
X11335Y76955
X11335Y66955
X11335Y56955
X26335Y91955
X26335Y101955
T02
X90350Y128530
X90350Y148530
X90154Y160892
X90154Y180892
T03
X91335Y116955
X101335Y116955
X111335Y116955
X121335Y116955
X131335Y116955
X141335Y116955
X151335Y116955
X161335Y116955
X161335Y66955
X151335Y66955
X141335Y66955
X131335Y66955
X121335Y66955
X111335Y66955
X101335Y66955
X91335Y66955
T04
X21335Y26955
X31335Y26955
X41335Y26955
X51335Y26955
X61335Y26955
X111335Y44081
X121335Y44081
X131335Y44081
X141335Y44081
X166335Y41955
X166335Y31955
X111335Y141955
X111335Y151955
X111335Y161955
T05
X151335Y161855
X151335Y142055
M30
