G75*
%MOIN*%
%OFA0B0*%
%FSLAX25Y25*%
%IPPOS*%
%LPD*%
%AMOC8*
5,1,8,0,0,1.08239X$1,22.5*
%
%ADD10C,0.00500*%
D10*
X0091585Y0147055D02*
X0091585Y0149555D01*
X0096085Y0148305D01*
X0092085Y0147055D02*
X0091585Y0147055D01*
X0092585Y0151805D02*
X0092647Y0151807D01*
X0092708Y0151813D01*
X0092769Y0151822D01*
X0092829Y0151835D01*
X0092888Y0151852D01*
X0092946Y0151873D01*
X0093003Y0151897D01*
X0093058Y0151924D01*
X0093111Y0151955D01*
X0093163Y0151989D01*
X0093212Y0152026D01*
X0093259Y0152066D01*
X0093303Y0152109D01*
X0093344Y0152154D01*
X0093383Y0152202D01*
X0093419Y0152253D01*
X0093451Y0152305D01*
X0093480Y0152359D01*
X0093506Y0152415D01*
X0093528Y0152473D01*
X0093547Y0152531D01*
X0093562Y0152591D01*
X0093573Y0152652D01*
X0093581Y0152713D01*
X0093585Y0152774D01*
X0093585Y0152836D01*
X0093581Y0152897D01*
X0093573Y0152958D01*
X0093562Y0153019D01*
X0093547Y0153079D01*
X0093528Y0153137D01*
X0093506Y0153195D01*
X0093480Y0153251D01*
X0093451Y0153305D01*
X0093419Y0153357D01*
X0093383Y0153408D01*
X0093344Y0153456D01*
X0093303Y0153501D01*
X0093259Y0153544D01*
X0093212Y0153584D01*
X0093163Y0153621D01*
X0093111Y0153655D01*
X0093058Y0153686D01*
X0093003Y0153713D01*
X0092946Y0153737D01*
X0092888Y0153758D01*
X0092829Y0153775D01*
X0092769Y0153788D01*
X0092708Y0153797D01*
X0092647Y0153803D01*
X0092585Y0153805D01*
X0092523Y0153803D01*
X0092462Y0153797D01*
X0092401Y0153788D01*
X0092341Y0153775D01*
X0092282Y0153758D01*
X0092224Y0153737D01*
X0092167Y0153713D01*
X0092112Y0153686D01*
X0092059Y0153655D01*
X0092007Y0153621D01*
X0091958Y0153584D01*
X0091911Y0153544D01*
X0091867Y0153501D01*
X0091826Y0153456D01*
X0091787Y0153408D01*
X0091751Y0153357D01*
X0091719Y0153305D01*
X0091690Y0153251D01*
X0091664Y0153195D01*
X0091642Y0153137D01*
X0091623Y0153079D01*
X0091608Y0153019D01*
X0091597Y0152958D01*
X0091589Y0152897D01*
X0091585Y0152836D01*
X0091585Y0152774D01*
X0091589Y0152713D01*
X0091597Y0152652D01*
X0091608Y0152591D01*
X0091623Y0152531D01*
X0091642Y0152473D01*
X0091664Y0152415D01*
X0091690Y0152359D01*
X0091719Y0152305D01*
X0091751Y0152253D01*
X0091787Y0152202D01*
X0091826Y0152154D01*
X0091867Y0152109D01*
X0091911Y0152066D01*
X0091958Y0152026D01*
X0092007Y0151989D01*
X0092059Y0151955D01*
X0092112Y0151924D01*
X0092167Y0151897D01*
X0092224Y0151873D01*
X0092282Y0151852D01*
X0092341Y0151835D01*
X0092401Y0151822D01*
X0092462Y0151813D01*
X0092523Y0151807D01*
X0092585Y0151805D01*
X0094835Y0151555D02*
X0094904Y0151557D01*
X0094973Y0151563D01*
X0095041Y0151572D01*
X0095108Y0151585D01*
X0095175Y0151602D01*
X0095241Y0151623D01*
X0095305Y0151647D01*
X0095368Y0151675D01*
X0095430Y0151706D01*
X0095490Y0151740D01*
X0095547Y0151778D01*
X0095603Y0151819D01*
X0095656Y0151862D01*
X0095707Y0151909D01*
X0095755Y0151958D01*
X0095800Y0152010D01*
X0095842Y0152065D01*
X0095881Y0152121D01*
X0095918Y0152180D01*
X0095950Y0152241D01*
X0095980Y0152303D01*
X0096006Y0152367D01*
X0096028Y0152432D01*
X0096047Y0152498D01*
X0096062Y0152565D01*
X0096073Y0152633D01*
X0096081Y0152702D01*
X0096085Y0152771D01*
X0096085Y0152839D01*
X0096081Y0152908D01*
X0096073Y0152977D01*
X0096062Y0153045D01*
X0096047Y0153112D01*
X0096028Y0153178D01*
X0096006Y0153243D01*
X0095980Y0153307D01*
X0095950Y0153369D01*
X0095918Y0153430D01*
X0095881Y0153489D01*
X0095842Y0153545D01*
X0095800Y0153600D01*
X0095755Y0153652D01*
X0095707Y0153701D01*
X0095656Y0153748D01*
X0095603Y0153791D01*
X0095547Y0153832D01*
X0095490Y0153870D01*
X0095430Y0153904D01*
X0095368Y0153935D01*
X0095305Y0153963D01*
X0095241Y0153987D01*
X0095175Y0154008D01*
X0095108Y0154025D01*
X0095041Y0154038D01*
X0094973Y0154047D01*
X0094904Y0154053D01*
X0094835Y0154055D01*
X0094766Y0154053D01*
X0094697Y0154047D01*
X0094629Y0154038D01*
X0094562Y0154025D01*
X0094495Y0154008D01*
X0094429Y0153987D01*
X0094365Y0153963D01*
X0094302Y0153935D01*
X0094240Y0153904D01*
X0094180Y0153870D01*
X0094123Y0153832D01*
X0094067Y0153791D01*
X0094014Y0153748D01*
X0093963Y0153701D01*
X0093915Y0153652D01*
X0093870Y0153600D01*
X0093828Y0153545D01*
X0093789Y0153489D01*
X0093752Y0153430D01*
X0093720Y0153369D01*
X0093690Y0153307D01*
X0093664Y0153243D01*
X0093642Y0153178D01*
X0093623Y0153112D01*
X0093608Y0153045D01*
X0093597Y0152977D01*
X0093589Y0152908D01*
X0093585Y0152839D01*
X0093585Y0152771D01*
X0093589Y0152702D01*
X0093597Y0152633D01*
X0093608Y0152565D01*
X0093623Y0152498D01*
X0093642Y0152432D01*
X0093664Y0152367D01*
X0093690Y0152303D01*
X0093720Y0152241D01*
X0093752Y0152180D01*
X0093789Y0152121D01*
X0093828Y0152065D01*
X0093870Y0152010D01*
X0093915Y0151958D01*
X0093963Y0151909D01*
X0094014Y0151862D01*
X0094067Y0151819D01*
X0094123Y0151778D01*
X0094180Y0151740D01*
X0094240Y0151706D01*
X0094302Y0151675D01*
X0094365Y0151647D01*
X0094429Y0151623D01*
X0094495Y0151602D01*
X0094562Y0151585D01*
X0094629Y0151572D01*
X0094697Y0151563D01*
X0094766Y0151557D01*
X0094835Y0151555D01*
X0095460Y0158180D02*
X0095351Y0158231D01*
X0095241Y0158278D01*
X0095129Y0158322D01*
X0095015Y0158362D01*
X0094901Y0158398D01*
X0094785Y0158431D01*
X0094669Y0158460D01*
X0094551Y0158485D01*
X0094433Y0158506D01*
X0094314Y0158524D01*
X0094195Y0158537D01*
X0094075Y0158547D01*
X0093955Y0158553D01*
X0093835Y0158555D01*
X0093835Y0156056D02*
X0093955Y0156058D01*
X0094075Y0156064D01*
X0094195Y0156074D01*
X0094314Y0156087D01*
X0094433Y0156105D01*
X0094551Y0156126D01*
X0094669Y0156151D01*
X0094785Y0156180D01*
X0094901Y0156213D01*
X0095015Y0156249D01*
X0095129Y0156289D01*
X0095241Y0156333D01*
X0095351Y0156380D01*
X0095460Y0156431D01*
X0095085Y0156305D02*
X0092585Y0158305D01*
X0092210Y0158180D02*
X0092154Y0158159D01*
X0092099Y0158133D01*
X0092045Y0158105D01*
X0091994Y0158073D01*
X0091945Y0158038D01*
X0091899Y0157999D01*
X0091855Y0157958D01*
X0091813Y0157914D01*
X0091775Y0157867D01*
X0091740Y0157818D01*
X0091708Y0157766D01*
X0091680Y0157713D01*
X0091655Y0157658D01*
X0091634Y0157602D01*
X0091616Y0157544D01*
X0091603Y0157485D01*
X0091593Y0157425D01*
X0091587Y0157365D01*
X0091585Y0157305D01*
X0091587Y0157245D01*
X0091593Y0157185D01*
X0091603Y0157125D01*
X0091616Y0157066D01*
X0091634Y0157008D01*
X0091655Y0156952D01*
X0091680Y0156897D01*
X0091708Y0156844D01*
X0091740Y0156792D01*
X0091775Y0156743D01*
X0091813Y0156696D01*
X0091855Y0156652D01*
X0091899Y0156611D01*
X0091945Y0156572D01*
X0091994Y0156537D01*
X0092045Y0156505D01*
X0092099Y0156477D01*
X0092154Y0156451D01*
X0092210Y0156430D01*
X0092210Y0158180D02*
X0092319Y0158231D01*
X0092429Y0158278D01*
X0092541Y0158322D01*
X0092655Y0158362D01*
X0092769Y0158398D01*
X0092885Y0158431D01*
X0093001Y0158460D01*
X0093119Y0158485D01*
X0093237Y0158506D01*
X0093356Y0158524D01*
X0093475Y0158537D01*
X0093595Y0158547D01*
X0093715Y0158553D01*
X0093835Y0158555D01*
X0093835Y0156056D02*
X0093715Y0156058D01*
X0093595Y0156064D01*
X0093475Y0156074D01*
X0093356Y0156087D01*
X0093237Y0156105D01*
X0093119Y0156126D01*
X0093001Y0156151D01*
X0092885Y0156180D01*
X0092769Y0156213D01*
X0092655Y0156249D01*
X0092541Y0156289D01*
X0092429Y0156333D01*
X0092319Y0156380D01*
X0092210Y0156431D01*
X0095460Y0158180D02*
X0095516Y0158159D01*
X0095571Y0158133D01*
X0095625Y0158105D01*
X0095676Y0158073D01*
X0095725Y0158038D01*
X0095771Y0157999D01*
X0095815Y0157958D01*
X0095857Y0157914D01*
X0095895Y0157867D01*
X0095930Y0157818D01*
X0095962Y0157766D01*
X0095990Y0157713D01*
X0096015Y0157658D01*
X0096036Y0157602D01*
X0096054Y0157544D01*
X0096067Y0157485D01*
X0096077Y0157425D01*
X0096083Y0157365D01*
X0096085Y0157305D01*
X0096083Y0157245D01*
X0096077Y0157185D01*
X0096067Y0157125D01*
X0096054Y0157066D01*
X0096036Y0157008D01*
X0096015Y0156952D01*
X0095990Y0156897D01*
X0095962Y0156844D01*
X0095930Y0156792D01*
X0095895Y0156743D01*
X0095857Y0156696D01*
X0095815Y0156652D01*
X0095771Y0156611D01*
X0095725Y0156572D01*
X0095676Y0156537D01*
X0095625Y0156505D01*
X0095571Y0156477D01*
X0095516Y0156451D01*
X0095460Y0156430D01*
X0096085Y0160555D02*
X0096085Y0162055D01*
X0096083Y0162115D01*
X0096078Y0162176D01*
X0096069Y0162235D01*
X0096056Y0162294D01*
X0096040Y0162353D01*
X0096020Y0162410D01*
X0095997Y0162465D01*
X0095970Y0162520D01*
X0095941Y0162572D01*
X0095908Y0162623D01*
X0095872Y0162672D01*
X0095834Y0162718D01*
X0095792Y0162762D01*
X0095748Y0162804D01*
X0095702Y0162842D01*
X0095653Y0162878D01*
X0095602Y0162911D01*
X0095550Y0162940D01*
X0095495Y0162967D01*
X0095440Y0162990D01*
X0095383Y0163010D01*
X0095324Y0163026D01*
X0095265Y0163039D01*
X0095206Y0163048D01*
X0095145Y0163053D01*
X0095085Y0163055D01*
X0094585Y0163055D01*
X0094525Y0163053D01*
X0094464Y0163048D01*
X0094405Y0163039D01*
X0094346Y0163026D01*
X0094287Y0163010D01*
X0094230Y0162990D01*
X0094175Y0162967D01*
X0094120Y0162940D01*
X0094068Y0162911D01*
X0094017Y0162878D01*
X0093968Y0162842D01*
X0093922Y0162804D01*
X0093878Y0162762D01*
X0093836Y0162718D01*
X0093798Y0162672D01*
X0093762Y0162623D01*
X0093729Y0162572D01*
X0093700Y0162520D01*
X0093673Y0162465D01*
X0093650Y0162410D01*
X0093630Y0162353D01*
X0093614Y0162294D01*
X0093601Y0162235D01*
X0093592Y0162176D01*
X0093587Y0162115D01*
X0093585Y0162055D01*
X0093585Y0160555D01*
X0091585Y0160555D01*
X0091585Y0163055D01*
X0091585Y0164755D02*
X0091585Y0167255D01*
X0091585Y0166005D02*
X0096085Y0166005D01*
X0096085Y0170205D02*
X0091585Y0171705D01*
X0091585Y0168705D02*
X0096085Y0170205D01*
M02*
